<?xml version="1.0" encoding="utf-8"?>
<!-- Generator: Adobe Illustrator 24.3.0, SVG Export Plug-In . SVG Version: 6.00 Build 0)  -->
<svg version="1.1" id="レイヤー_1" xmlns="http://www.w3.org/2000/svg" xmlns:xlink="http://www.w3.org/1999/xlink" x="0px"
	 y="0px" viewBox="0 0 2000 2000" style="enable-background:new 0 0 2000 2000;" xml:space="preserve">
<style type="text/css">
	.st0{fill-rule:evenodd;clip-rule:evenodd;fill:#FFFFFF;}
	
		.st1{clip-path:url(#SVGID_2_);fill:none;stroke:#D9D9D9;stroke-width:4.5;stroke-linejoin:round;stroke-miterlimit:10;stroke-dasharray:228600,171450;}
	.st2{clip-path:url(#SVGID_4_);fill:none;stroke:#D9D9D9;stroke-width:0.75;stroke-linejoin:round;stroke-miterlimit:10;}
	
		.st3{clip-path:url(#SVGID_6_);fill:none;stroke:#5B9BD5;stroke-width:6;stroke-linecap:round;stroke-linejoin:round;stroke-miterlimit:10;}
	
		.st4{clip-path:url(#SVGID_8_);fill:none;stroke:#ED7D31;stroke-width:6;stroke-linecap:round;stroke-linejoin:round;stroke-miterlimit:10;}
	.st5{clip-path:url(#SVGID_10_);}
	.st6{clip-path:url(#SVGID_12_);}
	.st7{fill:#404040;}
	.st8{font-family:'BIZ-UDPGothic';}
	.st9{font-size:49.8577px;}
	.st10{clip-path:url(#SVGID_14_);}
	.st11{clip-path:url(#SVGID_16_);}
	.st12{clip-path:url(#SVGID_18_);}
	.st13{clip-path:url(#SVGID_20_);}
	.st14{clip-path:url(#SVGID_22_);}
	.st15{clip-path:url(#SVGID_24_);}
	.st16{clip-path:url(#SVGID_26_);}
	.st17{clip-path:url(#SVGID_28_);}
	.st18{clip-path:url(#SVGID_30_);}
	.st19{clip-path:url(#SVGID_32_);}
	.st20{clip-path:url(#SVGID_34_);}
	.st21{clip-path:url(#SVGID_36_);}
	.st22{clip-path:url(#SVGID_38_);}
	.st23{clip-path:url(#SVGID_40_);}
	.st24{clip-path:url(#SVGID_42_);}
	.st25{clip-path:url(#SVGID_44_);}
	.st26{fill:#595959;}
	.st27{font-size:42.7963px;}
	.st28{clip-path:url(#SVGID_46_);}
	.st29{clip-path:url(#SVGID_48_);}
	.st30{clip-path:url(#SVGID_50_);}
	.st31{clip-path:url(#SVGID_52_);}
	.st32{clip-path:url(#SVGID_54_);}
	.st33{clip-path:url(#SVGID_56_);}
	.st34{clip-path:url(#SVGID_58_);}
	.st35{clip-path:url(#SVGID_60_);}
	.st36{clip-path:url(#SVGID_62_);}
	.st37{clip-path:url(#SVGID_64_);}
	.st38{clip-path:url(#SVGID_66_);}
	.st39{clip-path:url(#SVGID_68_);}
	.st40{clip-path:url(#SVGID_70_);}
	.st41{clip-path:url(#SVGID_72_);}
	.st42{clip-path:url(#SVGID_74_);}
	.st43{clip-path:url(#SVGID_76_);}
	.st44{font-size:57.133px;}
	.st45{clip-path:url(#SVGID_78_);}
	.st46{clip-path:url(#SVGID_80_);}
	.st47{clip-path:url(#SVGID_82_);}
	.st48{clip-path:url(#SVGID_84_);}
	.st49{clip-path:url(#SVGID_86_);}
	.st50{clip-path:url(#SVGID_88_);}
	.st51{clip-path:url(#SVGID_90_);}
	.st52{clip-path:url(#SVGID_92_);}
	.st53{clip-path:url(#SVGID_94_);}
	.st54{clip-path:url(#SVGID_96_);}
	.st55{clip-path:url(#SVGID_98_);}
	.st56{clip-path:url(#SVGID_100_);}
	.st57{clip-path:url(#SVGID_102_);}
	.st58{clip-path:url(#SVGID_104_);}
	.st59{clip-path:url(#SVGID_106_);}
	.st60{clip-path:url(#SVGID_108_);}
	.st61{font-size:78.5312px;}
	
		.st62{clip-path:url(#SVGID_110_);fill:none;stroke:#5B9BD5;stroke-width:6;stroke-linecap:round;stroke-linejoin:round;stroke-miterlimit:10;}
	.st63{clip-path:url(#SVGID_112_);}
	.st64{clip-path:url(#SVGID_114_);}
	.st65{font-size:64.1944px;}
	.st66{clip-path:url(#SVGID_116_);}
	.st67{clip-path:url(#SVGID_118_);}
	.st68{clip-path:url(#SVGID_120_);}
	.st69{clip-path:url(#SVGID_122_);}
	
		.st70{clip-path:url(#SVGID_124_);fill:none;stroke:#ED7D31;stroke-width:6;stroke-linecap:round;stroke-linejoin:round;stroke-miterlimit:10;}
	.st71{clip-path:url(#SVGID_126_);}
	.st72{clip-path:url(#SVGID_128_);}
	.st73{clip-path:url(#SVGID_130_);}
	.st74{clip-path:url(#SVGID_132_);}
	.st75{clip-path:url(#SVGID_134_);}
	.st76{clip-path:url(#SVGID_136_);}
	.st77{clip-path:url(#SVGID_138_);}
	.st78{clip-path:url(#SVGID_140_);}
	.st79{clip-path:url(#SVGID_142_);fill:none;stroke:#D9D9D9;stroke-width:0.75;stroke-linejoin:round;stroke-miterlimit:10;}
	.st80{clip-path:url(#SVGID_144_);}
	.st81{clip-path:url(#SVGID_146_);}
	.st82{fill:#7F7F7F;}
	.st83{clip-path:url(#SVGID_148_);}
	.st84{clip-path:url(#SVGID_150_);}
	.st85{clip-path:url(#SVGID_152_);}
	.st86{clip-path:url(#SVGID_154_);}
</style>
<g>
	<polygon class="st0" points="30.9,22.5 1988.4,22.5 1988.4,1957.9 30.9,1957.9 30.9,22.5 	"/>
	<g>
		<defs>
			<polygon id="SVGID_1_" points="30.6,1957.9 1988.1,1957.9 1988.1,22.2 30.6,22.2 30.6,1957.9 			"/>
		</defs>
		<clipPath id="SVGID_2_">
			<use xlink:href="#SVGID_1_"  style="overflow:visible;"/>
		</clipPath>
		<path class="st1" d="M177.6,1425.7h1722.1 M177.6,1234.9h1722.1 M177.6,1043.8h1722.1 M177.6,852.9h1722.1 M177.6,661.8h1722.1
			 M177.6,470.7h1722.1 M177.6,279.9h1722.1"/>
	</g>
	<g>
		<defs>
			<polygon id="SVGID_3_" points="30.6,1957.9 1988.1,1957.9 1988.1,22.2 30.6,22.2 30.6,1957.9 			"/>
		</defs>
		<clipPath id="SVGID_4_">
			<use xlink:href="#SVGID_3_"  style="overflow:visible;"/>
		</clipPath>
		<line class="st2" x1="177.6" y1="1616.8" x2="1899.8" y2="1616.8"/>
	</g>
	<g>
		<defs>
			<polygon id="SVGID_5_" points="177.6,1618.1 1901.1,1618.1 1901.1,279.7 177.6,279.7 177.6,1618.1 			"/>
		</defs>
		<clipPath id="SVGID_6_">
			<use xlink:href="#SVGID_5_"  style="overflow:visible;"/>
		</clipPath>
		<polyline class="st3" points="392.9,1177.5 823.4,1158.5 1254,738.2 1684.5,432.7 		"/>
	</g>
	<g>
		<defs>
			<polygon id="SVGID_7_" points="177.6,1618.1 1901.1,1618.1 1901.1,279.7 177.6,279.7 177.6,1618.1 			"/>
		</defs>
		<clipPath id="SVGID_8_">
			<use xlink:href="#SVGID_7_"  style="overflow:visible;"/>
		</clipPath>
		<polyline class="st4" points="392.9,1483.1 823.4,1464.1 1254,1445 1684.5,1425.7 		"/>
	</g>
	<g>
		<defs>
			<polygon id="SVGID_9_" points="30.6,1957.9 1988.1,1957.9 1988.1,22.2 30.6,22.2 30.6,1957.9 			"/>
		</defs>
		<clipPath id="SVGID_10_">
			<use xlink:href="#SVGID_9_"  style="overflow:visible;"/>
		</clipPath>
		<g class="st5">
			<defs>
				<rect id="SVGID_11_" x="30.6" y="22.2" width="1957.5" height="1935.7"/>
			</defs>
			<clipPath id="SVGID_12_">
				<use xlink:href="#SVGID_11_"  style="overflow:visible;"/>
			</clipPath>
			<g class="st6">
				<text transform="matrix(1 0 0 1 355.1396 1151.5078)" class="st7 st8 st9">23</text>
			</g>
		</g>
	</g>
	<g>
		<defs>
			<polygon id="SVGID_13_" points="30.6,1957.9 1988.1,1957.9 1988.1,22.2 30.6,22.2 30.6,1957.9 			"/>
		</defs>
		<clipPath id="SVGID_14_">
			<use xlink:href="#SVGID_13_"  style="overflow:visible;"/>
		</clipPath>
		<g class="st10">
			<defs>
				<rect id="SVGID_15_" x="30.6" y="22.2" width="1957.5" height="1935.7"/>
			</defs>
			<clipPath id="SVGID_16_">
				<use xlink:href="#SVGID_15_"  style="overflow:visible;"/>
			</clipPath>
			<g class="st11">
				<text transform="matrix(1 0 0 1 785.667 1132.4238)" class="st7 st8 st9">24</text>
			</g>
		</g>
	</g>
	<g>
		<defs>
			<polygon id="SVGID_17_" points="30.6,1957.9 1988.1,1957.9 1988.1,22.2 30.6,22.2 30.6,1957.9 			"/>
		</defs>
		<clipPath id="SVGID_18_">
			<use xlink:href="#SVGID_17_"  style="overflow:visible;"/>
		</clipPath>
		<g class="st12">
			<defs>
				<rect id="SVGID_19_" x="30.6" y="22.2" width="1957.5" height="1935.7"/>
			</defs>
			<clipPath id="SVGID_20_">
				<use xlink:href="#SVGID_19_"  style="overflow:visible;"/>
			</clipPath>
			<g class="st13">
				<text transform="matrix(1 0 0 1 1216.207 712.1919)" class="st7 st8 st9">46</text>
			</g>
		</g>
	</g>
	<g>
		<defs>
			<polygon id="SVGID_21_" points="30.6,1957.9 1988.1,1957.9 1988.1,22.2 30.6,22.2 30.6,1957.9 			"/>
		</defs>
		<clipPath id="SVGID_22_">
			<use xlink:href="#SVGID_21_"  style="overflow:visible;"/>
		</clipPath>
		<g class="st14">
			<defs>
				<rect id="SVGID_23_" x="30.6" y="22.2" width="1957.5" height="1935.7"/>
			</defs>
			<clipPath id="SVGID_24_">
				<use xlink:href="#SVGID_23_"  style="overflow:visible;"/>
			</clipPath>
			<g class="st15">
				<text transform="matrix(1 0 0 1 1646.7314 406.5845)" class="st7 st8 st9">62</text>
			</g>
		</g>
	</g>
	<g>
		<defs>
			<polygon id="SVGID_25_" points="30.6,1957.9 1988.1,1957.9 1988.1,22.2 30.6,22.2 30.6,1957.9 			"/>
		</defs>
		<clipPath id="SVGID_26_">
			<use xlink:href="#SVGID_25_"  style="overflow:visible;"/>
		</clipPath>
		<g class="st16">
			<defs>
				<rect id="SVGID_27_" x="30.6" y="22.2" width="1957.5" height="1935.7"/>
			</defs>
			<clipPath id="SVGID_28_">
				<use xlink:href="#SVGID_27_"  style="overflow:visible;"/>
			</clipPath>
			<g class="st17">
				<text transform="matrix(1 0 0 1 373.9746 1457.127)" class="st7 st8 st9">7</text>
			</g>
		</g>
	</g>
	<g>
		<defs>
			<polygon id="SVGID_29_" points="30.6,1957.9 1988.1,1957.9 1988.1,22.2 30.6,22.2 30.6,1957.9 			"/>
		</defs>
		<clipPath id="SVGID_30_">
			<use xlink:href="#SVGID_29_"  style="overflow:visible;"/>
		</clipPath>
		<g class="st18">
			<defs>
				<rect id="SVGID_31_" x="30.6" y="22.2" width="1957.5" height="1935.7"/>
			</defs>
			<clipPath id="SVGID_32_">
				<use xlink:href="#SVGID_31_"  style="overflow:visible;"/>
			</clipPath>
			<g class="st19">
				<text transform="matrix(1 0 0 1 804.5156 1438.043)" class="st7 st8 st9">8</text>
			</g>
		</g>
	</g>
	<g>
		<defs>
			<polygon id="SVGID_33_" points="30.6,1957.9 1988.1,1957.9 1988.1,22.2 30.6,22.2 30.6,1957.9 			"/>
		</defs>
		<clipPath id="SVGID_34_">
			<use xlink:href="#SVGID_33_"  style="overflow:visible;"/>
		</clipPath>
		<g class="st20">
			<defs>
				<rect id="SVGID_35_" x="30.6" y="22.2" width="1957.5" height="1935.7"/>
			</defs>
			<clipPath id="SVGID_36_">
				<use xlink:href="#SVGID_35_"  style="overflow:visible;"/>
			</clipPath>
			<g class="st21">
				<text transform="matrix(1 0 0 1 1235.0283 1418.9141)" class="st7 st8 st9">9</text>
			</g>
		</g>
	</g>
	<g>
		<defs>
			<polygon id="SVGID_37_" points="30.6,1957.9 1988.1,1957.9 1988.1,22.2 30.6,22.2 30.6,1957.9 			"/>
		</defs>
		<clipPath id="SVGID_38_">
			<use xlink:href="#SVGID_37_"  style="overflow:visible;"/>
		</clipPath>
		<g class="st22">
			<defs>
				<rect id="SVGID_39_" x="30.6" y="22.2" width="1957.5" height="1935.7"/>
			</defs>
			<clipPath id="SVGID_40_">
				<use xlink:href="#SVGID_39_"  style="overflow:visible;"/>
			</clipPath>
			<g class="st23">
				<text transform="matrix(1 0 0 1 1649.9365 1399.8301)"><tspan x="0" y="0" class="st7 st8 st9">1</tspan><tspan x="31.5" y="0" class="st7 st8 st9">0</tspan></text>
			</g>
		</g>
	</g>
	<g>
		<defs>
			<polygon id="SVGID_41_" points="30.6,1957.9 1988.1,1957.9 1988.1,22.2 30.6,22.2 30.6,1957.9 			"/>
		</defs>
		<clipPath id="SVGID_42_">
			<use xlink:href="#SVGID_41_"  style="overflow:visible;"/>
		</clipPath>
		<g class="st24">
			<defs>
				<rect id="SVGID_43_" x="30.6" y="22.2" width="1957.5" height="1935.7"/>
			</defs>
			<clipPath id="SVGID_44_">
				<use xlink:href="#SVGID_43_"  style="overflow:visible;"/>
			</clipPath>
			<g class="st25">
				<text transform="matrix(1 0 0 1 111.249 1633.1328)" class="st26 st8 st27">0</text>
			</g>
		</g>
	</g>
	<g>
		<defs>
			<polygon id="SVGID_45_" points="30.6,1957.9 1988.1,1957.9 1988.1,22.2 30.6,22.2 30.6,1957.9 			"/>
		</defs>
		<clipPath id="SVGID_46_">
			<use xlink:href="#SVGID_45_"  style="overflow:visible;"/>
		</clipPath>
		<g class="st28">
			<defs>
				<rect id="SVGID_47_" x="30.6" y="22.2" width="1957.5" height="1935.7"/>
			</defs>
			<clipPath id="SVGID_48_">
				<use xlink:href="#SVGID_47_"  style="overflow:visible;"/>
			</clipPath>
			<g class="st29">
				<text transform="matrix(1 0 0 1 84.293 1442.125)" class="st26 st8 st27">10</text>
			</g>
		</g>
	</g>
	<g>
		<defs>
			<polygon id="SVGID_49_" points="30.6,1957.9 1988.1,1957.9 1988.1,22.2 30.6,22.2 30.6,1957.9 			"/>
		</defs>
		<clipPath id="SVGID_50_">
			<use xlink:href="#SVGID_49_"  style="overflow:visible;"/>
		</clipPath>
		<g class="st30">
			<defs>
				<rect id="SVGID_51_" x="30.6" y="22.2" width="1957.5" height="1935.7"/>
			</defs>
			<clipPath id="SVGID_52_">
				<use xlink:href="#SVGID_51_"  style="overflow:visible;"/>
			</clipPath>
			<g class="st31">
				<text transform="matrix(1 0 0 1 78.7197 1251.1152)" class="st26 st8 st27">20</text>
			</g>
		</g>
	</g>
	<g>
		<defs>
			<polygon id="SVGID_53_" points="30.6,1957.9 1988.1,1957.9 1988.1,22.2 30.6,22.2 30.6,1957.9 			"/>
		</defs>
		<clipPath id="SVGID_54_">
			<use xlink:href="#SVGID_53_"  style="overflow:visible;"/>
		</clipPath>
		<g class="st32">
			<defs>
				<rect id="SVGID_55_" x="30.6" y="22.2" width="1957.5" height="1935.7"/>
			</defs>
			<clipPath id="SVGID_56_">
				<use xlink:href="#SVGID_55_"  style="overflow:visible;"/>
			</clipPath>
			<g class="st33">
				<text transform="matrix(1 0 0 1 78.7197 1060.1074)" class="st26 st8 st27">30</text>
			</g>
		</g>
	</g>
	<g>
		<defs>
			<polygon id="SVGID_57_" points="30.6,1957.9 1988.1,1957.9 1988.1,22.2 30.6,22.2 30.6,1957.9 			"/>
		</defs>
		<clipPath id="SVGID_58_">
			<use xlink:href="#SVGID_57_"  style="overflow:visible;"/>
		</clipPath>
		<g class="st34">
			<defs>
				<rect id="SVGID_59_" x="30.6" y="22.2" width="1957.5" height="1935.7"/>
			</defs>
			<clipPath id="SVGID_60_">
				<use xlink:href="#SVGID_59_"  style="overflow:visible;"/>
			</clipPath>
			<g class="st35">
				<text transform="matrix(1 0 0 1 78.7197 869.0972)" class="st26 st8 st27">40</text>
			</g>
		</g>
	</g>
	<g>
		<defs>
			<polygon id="SVGID_61_" points="30.6,1957.9 1988.1,1957.9 1988.1,22.2 30.6,22.2 30.6,1957.9 			"/>
		</defs>
		<clipPath id="SVGID_62_">
			<use xlink:href="#SVGID_61_"  style="overflow:visible;"/>
		</clipPath>
		<g class="st36">
			<defs>
				<rect id="SVGID_63_" x="30.6" y="22.2" width="1957.5" height="1935.7"/>
			</defs>
			<clipPath id="SVGID_64_">
				<use xlink:href="#SVGID_63_"  style="overflow:visible;"/>
			</clipPath>
			<g class="st37">
				<text transform="matrix(1 0 0 1 78.7197 678.0747)" class="st26 st8 st27">50</text>
			</g>
		</g>
	</g>
	<g>
		<defs>
			<polygon id="SVGID_65_" points="30.6,1957.9 1988.1,1957.9 1988.1,22.2 30.6,22.2 30.6,1957.9 			"/>
		</defs>
		<clipPath id="SVGID_66_">
			<use xlink:href="#SVGID_65_"  style="overflow:visible;"/>
		</clipPath>
		<g class="st38">
			<defs>
				<rect id="SVGID_67_" x="30.6" y="22.2" width="1957.5" height="1935.7"/>
			</defs>
			<clipPath id="SVGID_68_">
				<use xlink:href="#SVGID_67_"  style="overflow:visible;"/>
			</clipPath>
			<g class="st39">
				<text transform="matrix(1 0 0 1 78.7197 487.0649)" class="st26 st8 st27">60</text>
			</g>
		</g>
	</g>
	<g>
		<defs>
			<polygon id="SVGID_69_" points="30.6,1957.9 1988.1,1957.9 1988.1,22.2 30.6,22.2 30.6,1957.9 			"/>
		</defs>
		<clipPath id="SVGID_70_">
			<use xlink:href="#SVGID_69_"  style="overflow:visible;"/>
		</clipPath>
		<g class="st40">
			<defs>
				<rect id="SVGID_71_" x="30.6" y="22.2" width="1957.5" height="1935.7"/>
			</defs>
			<clipPath id="SVGID_72_">
				<use xlink:href="#SVGID_71_"  style="overflow:visible;"/>
			</clipPath>
			<g class="st41">
				<text transform="matrix(1 0 0 1 78.7197 296.0708)" class="st26 st8 st27">70</text>
			</g>
		</g>
	</g>
	<g>
		<defs>
			<polygon id="SVGID_73_" points="30.6,1957.9 1988.1,1957.9 1988.1,22.2 30.6,22.2 30.6,1957.9 			"/>
		</defs>
		<clipPath id="SVGID_74_">
			<use xlink:href="#SVGID_73_"  style="overflow:visible;"/>
		</clipPath>
		<g class="st42">
			<defs>
				<rect id="SVGID_75_" x="30.6" y="22.2" width="1957.5" height="1935.7"/>
			</defs>
			<clipPath id="SVGID_76_">
				<use xlink:href="#SVGID_75_"  style="overflow:visible;"/>
			</clipPath>
			<g class="st43">
				<text transform="matrix(1 0 0 1 277.3906 1709.168)" class="st26 st8 st44">2005</text>
			</g>
		</g>
	</g>
	<g>
		<defs>
			<polygon id="SVGID_77_" points="30.6,1957.9 1988.1,1957.9 1988.1,22.2 30.6,22.2 30.6,1957.9 			"/>
		</defs>
		<clipPath id="SVGID_78_">
			<use xlink:href="#SVGID_77_"  style="overflow:visible;"/>
		</clipPath>
		<g class="st45">
			<defs>
				<rect id="SVGID_79_" x="30.6" y="22.2" width="1957.5" height="1935.7"/>
			</defs>
			<clipPath id="SVGID_80_">
				<use xlink:href="#SVGID_79_"  style="overflow:visible;"/>
			</clipPath>
			<g class="st46">
				<text transform="matrix(1 0 0 1 451.1523 1709.168)" class="st26 st8 st44">年</text>
			</g>
		</g>
	</g>
	<g>
		<defs>
			<polygon id="SVGID_81_" points="30.6,1957.9 1988.1,1957.9 1988.1,22.2 30.6,22.2 30.6,1957.9 			"/>
		</defs>
		<clipPath id="SVGID_82_">
			<use xlink:href="#SVGID_81_"  style="overflow:visible;"/>
		</clipPath>
		<g class="st47">
			<defs>
				<rect id="SVGID_83_" x="30.6" y="22.2" width="1957.5" height="1935.7"/>
			</defs>
			<clipPath id="SVGID_84_">
				<use xlink:href="#SVGID_83_"  style="overflow:visible;"/>
			</clipPath>
			<g class="st48">
				<text transform="matrix(1 0 0 1 711.7754 1709.168)" class="st26 st8 st44">2010</text>
			</g>
		</g>
	</g>
	<g>
		<defs>
			<polygon id="SVGID_85_" points="30.6,1957.9 1988.1,1957.9 1988.1,22.2 30.6,22.2 30.6,1957.9 			"/>
		</defs>
		<clipPath id="SVGID_86_">
			<use xlink:href="#SVGID_85_"  style="overflow:visible;"/>
		</clipPath>
		<g class="st49">
			<defs>
				<rect id="SVGID_87_" x="30.6" y="22.2" width="1957.5" height="1935.7"/>
			</defs>
			<clipPath id="SVGID_88_">
				<use xlink:href="#SVGID_87_"  style="overflow:visible;"/>
			</clipPath>
			<g class="st50">
				<text transform="matrix(1 0 0 1 878.0566 1709.168)" class="st26 st8 st44">年</text>
			</g>
		</g>
	</g>
	<g>
		<defs>
			<polygon id="SVGID_89_" points="30.6,1957.9 1988.1,1957.9 1988.1,22.2 30.6,22.2 30.6,1957.9 			"/>
		</defs>
		<clipPath id="SVGID_90_">
			<use xlink:href="#SVGID_89_"  style="overflow:visible;"/>
		</clipPath>
		<g class="st51">
			<defs>
				<rect id="SVGID_91_" x="30.6" y="22.2" width="1957.5" height="1935.7"/>
			</defs>
			<clipPath id="SVGID_92_">
				<use xlink:href="#SVGID_91_"  style="overflow:visible;"/>
			</clipPath>
			<g class="st52">
				<text transform="matrix(1 0 0 1 1142.3018 1709.168)" class="st26 st8 st44">2015</text>
			</g>
		</g>
	</g>
	<g>
		<defs>
			<polygon id="SVGID_93_" points="30.6,1957.9 1988.1,1957.9 1988.1,22.2 30.6,22.2 30.6,1957.9 			"/>
		</defs>
		<clipPath id="SVGID_94_">
			<use xlink:href="#SVGID_93_"  style="overflow:visible;"/>
		</clipPath>
		<g class="st53">
			<defs>
				<rect id="SVGID_95_" x="30.6" y="22.2" width="1957.5" height="1935.7"/>
			</defs>
			<clipPath id="SVGID_96_">
				<use xlink:href="#SVGID_95_"  style="overflow:visible;"/>
			</clipPath>
			<g class="st54">
				<text transform="matrix(1 0 0 1 1308.5684 1709.168)" class="st26 st8 st44">年</text>
			</g>
		</g>
	</g>
	<g>
		<defs>
			<polygon id="SVGID_97_" points="30.6,1957.9 1988.1,1957.9 1988.1,22.2 30.6,22.2 30.6,1957.9 			"/>
		</defs>
		<clipPath id="SVGID_98_">
			<use xlink:href="#SVGID_97_"  style="overflow:visible;"/>
		</clipPath>
		<g class="st55">
			<defs>
				<rect id="SVGID_99_" x="30.6" y="22.2" width="1957.5" height="1935.7"/>
			</defs>
			<clipPath id="SVGID_100_">
				<use xlink:href="#SVGID_99_"  style="overflow:visible;"/>
			</clipPath>
			<g class="st56">
				<text transform="matrix(1 0 0 1 1568.9824 1709.168)" class="st26 st8 st44">2020</text>
			</g>
		</g>
	</g>
	<g>
		<defs>
			<polygon id="SVGID_101_" points="30.6,1957.9 1988.1,1957.9 1988.1,22.2 30.6,22.2 30.6,1957.9 			"/>
		</defs>
		<clipPath id="SVGID_102_">
			<use xlink:href="#SVGID_101_"  style="overflow:visible;"/>
		</clipPath>
		<g class="st57">
			<defs>
				<rect id="SVGID_103_" x="30.6" y="22.2" width="1957.5" height="1935.7"/>
			</defs>
			<clipPath id="SVGID_104_">
				<use xlink:href="#SVGID_103_"  style="overflow:visible;"/>
			</clipPath>
			<g class="st58">
				<text transform="matrix(1 0 0 1 1742.7305 1709.168)" class="st26 st8 st44">年</text>
			</g>
		</g>
	</g>
	<g>
		<defs>
			<polygon id="SVGID_105_" points="30.6,1957.9 1988.1,1957.9 1988.1,22.2 30.6,22.2 30.6,1957.9 			"/>
		</defs>
		<clipPath id="SVGID_106_">
			<use xlink:href="#SVGID_105_"  style="overflow:visible;"/>
		</clipPath>
		<g class="st59">
			<defs>
				<rect id="SVGID_107_" x="30.6" y="22.2" width="1957.5" height="1935.7"/>
			</defs>
			<clipPath id="SVGID_108_">
				<use xlink:href="#SVGID_107_"  style="overflow:visible;"/>
			</clipPath>
			<g class="st60">
				<text transform="matrix(1 0 0 1 452.1016 161.1753)"><tspan x="0" y="0" class="st26 st8 st61">資産家と大手一般社員</tspan><tspan x="780.6" y="0" class="st26 st8 st61">と</tspan><tspan x="854.3" y="0" class="st26 st8 st61">の資</tspan><tspan x="1011.3" y="0" class="st26 st8 st61">産</tspan><tspan x="1089.7" y="0" class="st26 st8 st61">推移</tspan></text>
			</g>
		</g>
	</g>
	<g>
		<defs>
			<polygon id="SVGID_109_" points="30.6,1957.9 1988.1,1957.9 1988.1,22.2 30.6,22.2 30.6,1957.9 			"/>
		</defs>
		<clipPath id="SVGID_110_">
			<use xlink:href="#SVGID_109_"  style="overflow:visible;"/>
		</clipPath>
		<line class="st62" x1="489.8" y1="1847.7" x2="524.1" y2="1847.7"/>
	</g>
	<g>
		<defs>
			<polygon id="SVGID_111_" points="30.6,1889.4 1835.6,1889.4 1835.6,1815 30.6,1815 30.6,1889.4 			"/>
		</defs>
		<clipPath id="SVGID_112_">
			<use xlink:href="#SVGID_111_"  style="overflow:visible;"/>
		</clipPath>
		<g class="st63">
			<defs>
				<rect id="SVGID_113_" x="30.6" y="1815" width="1804.9" height="74.5"/>
			</defs>
			<clipPath id="SVGID_114_">
				<use xlink:href="#SVGID_113_"  style="overflow:visible;"/>
			</clipPath>
			<g class="st64">
				<text transform="matrix(1 0 0 1 527.7188 1876.6211)" class="st26 st8 st65">大富豪</text>
			</g>
		</g>
	</g>
	<g>
		<defs>
			<polygon id="SVGID_115_" points="30.6,1889.4 1835.6,1889.4 1835.6,1815 30.6,1815 30.6,1889.4 			"/>
		</defs>
		<clipPath id="SVGID_116_">
			<use xlink:href="#SVGID_115_"  style="overflow:visible;"/>
		</clipPath>
		<g class="st66">
			<defs>
				<rect id="SVGID_117_" x="30.6" y="1815" width="1804.9" height="74.5"/>
			</defs>
			<clipPath id="SVGID_118_">
				<use xlink:href="#SVGID_117_"  style="overflow:visible;"/>
			</clipPath>
			<g class="st67">
				<text transform="matrix(1 0 0 1 741.7012 1876.6211)" class="st26 st8 st65">8</text>
			</g>
		</g>
	</g>
	<g>
		<defs>
			<polygon id="SVGID_119_" points="30.6,1889.4 1835.6,1889.4 1835.6,1815 30.6,1815 30.6,1889.4 			"/>
		</defs>
		<clipPath id="SVGID_120_">
			<use xlink:href="#SVGID_119_"  style="overflow:visible;"/>
		</clipPath>
		<g class="st68">
			<defs>
				<rect id="SVGID_121_" x="30.6" y="1815" width="1804.9" height="74.5"/>
			</defs>
			<clipPath id="SVGID_122_">
				<use xlink:href="#SVGID_121_"  style="overflow:visible;"/>
			</clipPath>
			<g class="st69">
				<text transform="matrix(1 0 0 1 790.4883 1876.6211)" class="st26 st8 st65">人</text>
			</g>
		</g>
	</g>
	<g>
		<defs>
			<polygon id="SVGID_123_" points="30.6,1957.9 1988.1,1957.9 1988.1,22.2 30.6,22.2 30.6,1957.9 			"/>
		</defs>
		<clipPath id="SVGID_124_">
			<use xlink:href="#SVGID_123_"  style="overflow:visible;"/>
		</clipPath>
		<line class="st70" x1="934.1" y1="1847.7" x2="968.3" y2="1847.7"/>
	</g>
	<g>
		<defs>
			<polygon id="SVGID_125_" points="30.6,1889.4 1988.1,1889.4 1988.1,1815 30.6,1815 30.6,1889.4 			"/>
		</defs>
		<clipPath id="SVGID_126_">
			<use xlink:href="#SVGID_125_"  style="overflow:visible;"/>
		</clipPath>
		<g class="st71">
			<defs>
				<rect id="SVGID_127_" x="30.6" y="1815" width="1957.5" height="74.5"/>
			</defs>
			<clipPath id="SVGID_128_">
				<use xlink:href="#SVGID_127_"  style="overflow:visible;"/>
			</clipPath>
			<g class="st72">
				<text transform="matrix(1 0 0 1 971.8691 1876.6211)" class="st26 st8 st65">大手一般社員人口</text>
			</g>
		</g>
	</g>
	<g>
		<defs>
			<polygon id="SVGID_129_" points="30.6,1889.4 1988.1,1889.4 1988.1,1815 30.6,1815 30.6,1889.4 			"/>
		</defs>
		<clipPath id="SVGID_130_">
			<use xlink:href="#SVGID_129_"  style="overflow:visible;"/>
		</clipPath>
		<g class="st73">
			<defs>
				<rect id="SVGID_131_" x="30.6" y="1815" width="1957.5" height="74.5"/>
			</defs>
			<clipPath id="SVGID_132_">
				<use xlink:href="#SVGID_131_"  style="overflow:visible;"/>
			</clipPath>
			<g class="st74">
				<text transform="matrix(1 0 0 1 1506.8232 1876.6211)" class="st26 st8 st65">の</text>
			</g>
		</g>
	</g>
	<g>
		<defs>
			<polygon id="SVGID_133_" points="30.6,1889.4 1988.1,1889.4 1988.1,1815 30.6,1815 30.6,1889.4 			"/>
		</defs>
		<clipPath id="SVGID_134_">
			<use xlink:href="#SVGID_133_"  style="overflow:visible;"/>
		</clipPath>
		<g class="st75">
			<defs>
				<rect id="SVGID_135_" x="30.6" y="1815" width="1957.5" height="74.5"/>
			</defs>
			<clipPath id="SVGID_136_">
				<use xlink:href="#SVGID_135_"  style="overflow:visible;"/>
			</clipPath>
			<g class="st76">
				<text transform="matrix(1 0 0 1 1571.0176 1876.6211)" class="st26 st8 st65">1</text>
			</g>
		</g>
	</g>
	<g>
		<defs>
			<polygon id="SVGID_137_" points="30.6,1889.4 1988.1,1889.4 1988.1,1815 30.6,1815 30.6,1889.4 			"/>
		</defs>
		<clipPath id="SVGID_138_">
			<use xlink:href="#SVGID_137_"  style="overflow:visible;"/>
		</clipPath>
		<g class="st77">
			<defs>
				<rect id="SVGID_139_" x="30.6" y="1815" width="1957.5" height="74.5"/>
			</defs>
			<clipPath id="SVGID_140_">
				<use xlink:href="#SVGID_139_"  style="overflow:visible;"/>
			</clipPath>
			<g class="st78">
				<text transform="matrix(1 0 0 1 1611.4873 1876.6211)" class="st26 st8 st65">割</text>
			</g>
		</g>
	</g>
	<g>
		<defs>
			<polygon id="SVGID_141_" points="30.2,1958.6 1989,1958.6 1989,21.8 30.2,21.8 30.2,1958.6 			"/>
		</defs>
		<clipPath id="SVGID_142_">
			<use xlink:href="#SVGID_141_"  style="overflow:visible;"/>
		</clipPath>
		<polygon class="st79" points="30.9,22.5 1988.4,22.5 1988.4,1957.9 30.9,1957.9 30.9,22.5 		"/>
	</g>
	<g>
		<defs>
			<polygon id="SVGID_143_" points="105.5,241.8 380.1,241.8 380.1,153.8 105.5,153.8 105.5,241.8 			"/>
		</defs>
		<clipPath id="SVGID_144_">
			<use xlink:href="#SVGID_143_"  style="overflow:visible;"/>
		</clipPath>
		<g class="st80">
			<defs>
				<rect id="SVGID_145_" x="105.5" y="153.8" width="274.5" height="87.9"/>
			</defs>
			<clipPath id="SVGID_146_">
				<use xlink:href="#SVGID_145_"  style="overflow:visible;"/>
			</clipPath>
			<g class="st81">
				<text transform="matrix(1 0 0 1 118.4512 219.1284)" class="st82 st8 st44">単位</text>
			</g>
		</g>
	</g>
	<g>
		<defs>
			<polygon id="SVGID_147_" points="105.5,241.8 380.1,241.8 380.1,153.8 105.5,153.8 105.5,241.8 			"/>
		</defs>
		<clipPath id="SVGID_148_">
			<use xlink:href="#SVGID_147_"  style="overflow:visible;"/>
		</clipPath>
		<g class="st83">
			<defs>
				<rect id="SVGID_149_" x="105.5" y="153.8" width="274.5" height="87.9"/>
			</defs>
			<clipPath id="SVGID_150_">
				<use xlink:href="#SVGID_149_"  style="overflow:visible;"/>
			</clipPath>
			<g class="st84">
				<text transform="matrix(1 0 0 1 232.7139 219.1284)" class="st82 st8 st44">:</text>
			</g>
		</g>
	</g>
	<g>
		<defs>
			<polygon id="SVGID_151_" points="105.5,241.8 380.1,241.8 380.1,153.8 105.5,153.8 105.5,241.8 			"/>
		</defs>
		<clipPath id="SVGID_152_">
			<use xlink:href="#SVGID_151_"  style="overflow:visible;"/>
		</clipPath>
		<g class="st85">
			<defs>
				<rect id="SVGID_153_" x="105.5" y="153.8" width="274.5" height="87.9"/>
			</defs>
			<clipPath id="SVGID_154_">
				<use xlink:href="#SVGID_153_"  style="overflow:visible;"/>
			</clipPath>
			<g class="st86">
				<text transform="matrix(1 0 0 1 250.4756 219.1284)" class="st82 st8 st44">兆円</text>
			</g>
		</g>
	</g>
</g>
</svg>
